<svg xmlns="http://www.w3.org/2000/svg" width="22.051" height="22.05" viewBox="0 0 22.051 22.05">
  <g id="icons" transform="translate(0 0)">
    <path id="profile-_1341_" data-name="profile-[#1341]" d="M135.025,2010.025a4.41,4.41,0,1,1,4.431-4.41,4.425,4.425,0,0,1-4.431,4.41m4.163.742a6.592,6.592,0,0,0,2.406-6.178,6.65,6.65,0,0,0-13.215,1.026,6.587,6.587,0,0,0,2.483,5.152,10.51,10.51,0,0,0-6.858,9.06,1.115,1.115,0,0,0,1.107,1.223,1.091,1.091,0,0,0,1.095-.982c.444-4.921,4.229-7.838,8.819-7.838s8.375,2.917,8.819,7.838a1.091,1.091,0,0,0,1.095.982,1.115,1.115,0,0,0,1.106-1.223,10.506,10.506,0,0,0-6.858-9.06" transform="translate(-123.999 -1999)" fill="#a1a1a1" fill-rule="evenodd"/>
  </g>
</svg>
